<svg xmlns="http://www.w3.org/2000/svg" viewBox="0 0 512 512">
  <path fill="#FFD54F" d="M256 56l-32 400h64z"/>
  <path fill="#FFC107" d="M256 56v400h32l32-400z"/>
  <path fill="#455A64" d="M288 32h-64c-8.8 0-16 7.2-16 16v16h96V48c0-8.8-7.2-16-16-16z"/>
  <path fill="#FFA000" d="M256 456l-32-32v-48h64v48z"/>
  <path fill="#F57C00" d="M256 456l32-32v-48h-32z"/>
  <circle fill="#F44336" cx="256" cy="376" r="8"/>
  <circle fill="#F44336" cx="256" cy="344" r="8"/>
  <circle fill="#F44336" cx="256" cy="312" r="8"/>
  <path fill="#FFC107" d="M288 144v-16h-64v16l32 16z"/>
  <path fill="#FFECB3" d="M256 160l-32-16v-16h32z"/>
  <path fill="#FFA000" d="M256 112a24 24 0 100-48 24 24 0 000 48z"/>
  <circle fill="#FFECB3" cx="256" cy="88" r="8"/>
  <path fill="#455A64" d="M392 48H120c-13.2 0-24 10.8-24 24v16c0 4.4 3.6 8 8 8h304c4.4 0 8-3.6 8-8V72c0-13.2-10.8-24-24-24zm-8 128h-64c-4.4 0-8 3.6-8 8v48c0 4.4 3.6 8 8 8h64c4.4 0 8-3.6 8-8v-48c0-4.4-3.6-8-8-8zM128 176H64c-4.4 0-8 3.6-8 8v48c0 4.4 3.6 8 8 8h64c4.4 0 8-3.6 8-8v-48c0-4.4-3.6-8-8-8zm208 208h-16v-32h-48v32h-16v-64h80z"/>
  <path fill="#E0E0E0" d="M432 272h-96c-8.8 0-16 7.2-16 16v16h128v-16c0-8.8-7.2-16-16-16z"/>
  <path fill="#BDBDBD" d="M448 304H320v16h128z"/>
  <path fill="#FFC107" d="M63.6 286.4l12.8-12.8L96 288l-19.6 19.6z"/>
  <path fill="#FFECB3" d="M63.6 286.4l12.8-12.8 9.6 9.6-12.8 12.8z"/>
</svg>
