<?xml version="1.0" encoding="utf-8"?>
<svg version="1.1" xmlns="http://www.w3.org/2000/svg" xmlns:xlink="http://www.w3.org/1999/xlink" x="0px" y="0px"
	 viewBox="0 0 32 32" style="enable-background:new 0 0 32 32;" xml:space="preserve">
<style type="text/css">
	.st0{fill:#222222;}
	.st1{fill:#FFFFFF;}
	.st2{fill:#E83700;}
</style>
<circle class="st0" cx="16" cy="16" r="16"/>
<g>
  <path class="st1" d="M8.1,20.9c-3,0.5-5.9,1.2-8.4,2c0-0.1,0.1-0.3,0.2-0.4c-0.2,0.1-0.5,0.1-0.7,0.2c0.3-1,1.8-1.9,4-2.7H4.2V9
    h9.1V5.2H4v0c-0.9,0-1.8,0.4-2.5,1.1c-0.7,0.7-1.1,1.6-1.1,2.6v11.1c0,1,0.4,1.9,1.1,2.6c0.7,0.7,1.6,1.1,2.6,1.1h7.4
    c1,0,1.9-0.4,2.6-1.1c0.6-0.6,0.9-1.2,1.1-2C14,20.8,13.6,20.8,13.1,20.9z"/>
  <path class="st2" d="M14.5,18.6v-7.5h0V5.2H11v0.2L8.5,9h2.3v10.3c-6.2,1.4-10.7,3.9-10.9,6.2c2.4-1.3,5.1-2.6,8-3.7
    c6.1-2.3,11.9-3.3,16.5-3.3C21.7,18.2,18.2,18.1,14.5,18.6z"/>
</g>
</svg> 