<?xml version="1.0" encoding="utf-8"?>
<!-- Generator: Adobe Illustrator 27.6.1, SVG Export Plug-In . SVG Version: 6.00 Build 0)  -->
<svg version="1.1" id="Camada_1" xmlns="http://www.w3.org/2000/svg" xmlns:xlink="http://www.w3.org/1999/xlink" x="0px" y="0px"
	 viewBox="0 0 96 32" style="enable-background:new 0 0 96 32;" xml:space="preserve">
<style type="text/css">
	.st0{fill:#FFFFFF;}
	.st1{fill:#E83700;}
</style>
<g id="Tipografia_1_">
	<path class="st0" d="M0.6,23.8v-3.7h11.1v-3.7H4.3c-1,0-1.9-0.4-2.6-1.1c-0.7-0.7-1.1-1.6-1.1-2.6V9c0-1,0.4-1.9,1.1-2.6
		c0.7-0.7,1.6-1.1,2.6-1.1h11.1V9H4.3v3.7h7.4c1,0,1.9,0.4,2.6,1.1c0.7,0.7,1.1,1.6,1.1,2.6v3.7c0,1-0.4,1.9-1.1,2.6
		c-0.7,0.7-1.6,1.1-2.6,1.1H0.6z"/>
	<path class="st0" d="M20,23.8c-1,0-1.9-0.4-2.6-1.1c-0.7-0.7-1.1-1.6-1.1-2.6v-7.4c0-1,0.4-1.9,1.1-2.6C18.1,9.3,19,9,20,9h7.4
		c1,0,1.9,0.4,2.6,1.1c0.7,0.7,1.1,1.6,1.1,2.6v7.4c0,1-0.4,1.9-1.1,2.6c-0.7,0.7-1.6,1.1-2.6,1.1H20z M27.4,20.1v-7.4H20v7.4H27.4z
		"/>
	<path class="st0" d="M32,23.8V9c0-1,0.4-1.9,1.1-2.6c0.7-0.7,1.6-1.1,2.6-1.1h3.7V9h-3.7v0.9h3.7v3.7h-3.7v10.2H32z"/>
	<path class="st0" d="M44.1,20.1L44.1,20.1L44.1,20.1l0-6.5h3.7V9.8h-3.7V5.3h-3.7v14.8c0,1,0.4,1.9,1.1,2.6
		c0.7,0.7,1.6,1.1,2.6,1.1h3.7v-3.7H44.1z"/>
	<g>
		<path class="st0" d="M64.4,20.6v3.2h3.7v-3.6C66.9,20.2,65.7,20.4,64.4,20.6z"/>
		<path class="st0" d="M78.2,10.1C77.4,9.3,76.6,9,75.6,9h-7.4c-1,0-1.9,0.4-2.6,1.1c-0.7,0.7-1.1,1.6-1.1,2.6v6.1
			c1.2-0.1,2.4-0.2,3.6-0.2c0,0,0,0,0.1,0v-5.9h7.4v11.1h3.7V12.7C79.3,11.6,78.9,10.8,78.2,10.1z"/>
	</g>
	<g>
		<path class="st0" d="M62.1,20.9c-3,0.5-5.9,1.2-8.4,2c0-0.1,0.1-0.3,0.2-0.4c-0.2,0.1-0.5,0.1-0.7,0.2c0.3-1,1.8-1.9,4-2.7h-4.8V9
			h9.1V5.2h-9.3v0c-0.9,0-1.8,0.4-2.5,1.1c-0.7,0.7-1.1,1.6-1.1,2.6v11.1c0,1,0.4,1.9,1.1,2.6c0.7,0.7,1.6,1.1,2.6,1.1h7.4
			c1,0,1.9-0.4,2.6-1.1c0.6-0.6,0.9-1.2,1.1-2C63,20.8,62.6,20.8,62.1,20.9z"/>
		<path class="st1" d="M63.5,18.6v-7.5h0V5.2H60v0.2L57.5,9h2.3v10.3c-6.2,1.4-10.7,3.9-10.9,6.2c2.4-1.3,5.1-2.6,8-3.7
			c6.1-2.3,11.9-3.3,16.5-3.3C70.7,18.2,67.2,18.1,63.5,18.6z"/>
	</g>
	<path class="st0" d="M83.9,23.8c-1,0-1.9-0.4-2.6-1.1c-0.7-0.7-1.1-1.6-1.1-2.6v-7.4c0-1,0.4-1.9,1.1-2.6C82,9.3,82.9,9,83.9,9h7.4
		c1,0,1.9,0.4,2.6,1.1c0.7,0.7,1.1,1.6,1.1,2.6v5.6H83.9v1.9H95v3.7H83.9z M91.3,14.5v-1.9h-7.4v1.9H91.3z"/>
</g>
</svg>
